Coordinates
version=1
nRows=19
nColumns=36
inDegrees=yes

Units are S.I. units (second, meters, Newtons, ...)
If the header above contains a line with 'inDegrees', this indicates whether rotational values are in degrees (yes) or radians (no).

endheader
time	pelvis_tilt	pelvis_list	pelvis_rotation	pelvis_tx	pelvis_ty	pelvis_tz	hip_flexion_r	hip_adduction_r	hip_rotation_r	knee_angle_r	knee_angle_r_beta	ankle_angle_r	subtalar_angle_r	mtp_angle_r	hip_flexion_l	hip_adduction_l	hip_rotation_l	knee_angle_l	knee_angle_l_beta	ankle_angle_l	subtalar_angle_l	mtp_angle_l	lumbar_extension	lumbar_bending	lumbar_rotation	arm_flex_r	arm_add_r	arm_rot_r	elbow_flex_r	pro_sup_r	arm_flex_l	arm_add_l	arm_rot_l	elbow_flex_l	pro_sup_l
      0.00000000	      4.43065584	     -0.42281887	    175.52995802	      0.76607398	      0.96916106	      0.71683611	     14.34477555	      2.84370721	      4.51981838	     22.47301853	      0.39222817	      1.71347713	    -17.08237558	     -7.32998178	     26.32496378	      2.38310593	     -1.43738798	     32.51202906	      0.56744195	     -2.34855645	    -13.98653002	     -7.32998178	     -8.99373298	     -1.16766998	      8.13260500	     18.61890339	    -15.85917908	      0.27624227	     27.50509301	     94.99857120	      7.67288612	     -8.53827231	     -4.47941677	     18.69778957	     93.37058265
      0.01666670	      5.45946804	     -0.29206706	    175.11051463	      0.76727190	      0.96762296	      0.71502708	     14.45478608	      3.39074366	      4.72276129	     22.32209717	      0.38959409	      3.07857163	    -15.88295222	     -7.36501043	     28.83149830	      1.03903347	     -3.15627013	     31.45492165	      0.54899195	     -1.37904236	     -7.65869170	     -7.36501043	     -8.24318801	     -1.17416945	      8.88176688	     19.83187881	    -16.04301791	      0.80702900	     29.02286448	     92.52282430	      8.31135729	     -8.82489812	     -1.33362782	     17.19644987	     92.98694912
      0.03333330	      7.63789800	      0.13403256	    174.68226292	      0.76599037	      0.96535940	      0.71386455	     15.59749884	      4.16572952	      3.76428354	     22.10499002	      0.38580486	      4.84366170	    -14.37025939	     -7.38013820	     31.63832790	     -0.32223919	     -4.09456634	     29.73514340	      0.51897616	     -1.67311567	     -6.23062299	     -7.38013820	     -5.96734398	     -0.56792895	      9.58580386	     20.17983096	    -16.43065310	      1.13786639	     30.50919879	     90.73765934	      7.51074269	     -8.70346686	     -0.38960884	     16.12371834	     91.69429462
      0.05000000	      9.29156016	      0.54310279	    174.18789460	      0.76434570	      0.96286399	      0.71396807	     16.13358959	      4.85721658	      3.55511823	     21.86164598	      0.38155770	      6.87611280	    -12.88841105	     -7.39667145	     34.30947068	     -1.56168125	     -4.63159934	     28.18019633	      0.49183721	     -0.93064061	     -6.14419667	     -7.39667145	     -3.85815430	      0.06960867	     10.52812473	     19.98753702	    -16.97071391	      0.40477789	     32.19185327	     89.86590335	      6.67711384	     -8.26518852	      0.82991003	     14.48137222	     92.10794262
      0.06666670	     10.54311253	      1.27173124	    173.77820891	      0.76273465	      0.96146034	      0.71479349	     16.09666686	      5.69349099	      3.12226441	     21.71011549	      0.37891300	      8.49758869	    -11.09390012	     -7.40525838	     36.07838636	     -2.92568635	     -4.87036122	     25.30234466	      0.44160922	     -0.80738635	     -5.23880368	     -7.40525838	     -1.99009802	      1.14568838	     11.04516276	     20.24867748	    -17.43909229	     -0.75953850	     33.27313338	     88.74680373	      5.29864743	     -7.65315525	      0.59616385	     13.18316385	     91.54137495
      0.08333330	     11.33990830	      2.15201724	    173.27215979	      0.76176555	      0.95986628	      0.71604629	     15.40835173	      6.53359689	      2.50592582	     21.54436158	      0.37602004	     10.03554183	     -8.86595179	     -7.41695908	     37.07997039	     -4.25886352	     -4.85420395	     21.25219789	      0.37092083	     -1.41445589	     -4.23653922	     -7.41695908	     -0.63820533	      2.42042172	     11.94324263	     20.18429793	    -18.15807737	     -2.45410267	     34.62581146	     87.34301989	      4.15629950	     -6.82995181	     -0.32565754	     11.50519466	     91.00444017
      0.10000000	     11.68908487	      3.19149050	    172.54856010	      0.76166262	      0.95628387	      0.71675293	     14.15287218	      7.55757386	      2.30084479	     21.55370751	      0.37618316	     11.29677964	     -7.40953778	     -7.41941138	     37.45078574	     -5.75185774	     -4.81977649	     16.95305153	      0.29588657	     -2.54928116	     -2.92269673	     -7.41941138	      0.19798578	      3.89008800	     12.53216670	     20.79331733	    -18.78102173	     -3.22289539	     34.88102668	     86.71586136	      2.68507042	     -6.10281077	     -1.31402127	     10.15365211	     90.45990196
      0.11666670	     11.75026994	      4.18158666	    171.70534400	      0.76228259	      0.95084801	      0.71658225	     12.65185398	      8.48472198	      2.21558688	     21.88764856	      0.38201153	     12.96440920	     -5.74642609	     -7.42521892	     37.42672270	     -7.23396554	     -4.64851488	     13.20502265	      0.23047112	     -3.83036654	     -1.95920291	     -7.42521892	      0.66461637	      5.18785296	     13.71497564	     20.62079276	    -19.50309786	     -4.92111270	     35.77732694	     86.06389949	      1.77930682	     -5.26176761	     -3.95454207	      8.53918819	     90.29676041
      0.13333330	     11.77597353	      5.17579201	    171.06442686	      0.76282184	      0.94527244	      0.71629629	     11.25569168	      9.52076092	      2.65987469	     22.51693642	      0.39299468	     14.35034704	     -5.58091480	     -7.42627315	     37.57325369	     -8.70513966	     -4.11486658	     10.75651182	      0.18773655	     -4.46817201	     -1.04538203	     -7.42627315	      1.06781771	      6.41573233	     14.10034194	     20.93675620	    -19.98425273	     -5.34575030	     35.95110852	     85.86731699	      0.43299034	     -4.82899787	     -4.35256423	      8.06379546	     90.21479215
      0.15000000	     11.57438696	      5.88224880	    170.65978994	      0.76300944	      0.94104969	      0.71708947	      9.93998682	     10.18572798	      3.03595268	     23.66325807	      0.41300177	     15.62104697	     -5.66819891	     -7.42695022	     37.50542846	     -9.79758643	     -3.31874313	      9.44593040	      0.16486259	     -4.54041835	     -0.47776348	     -7.42695022	      1.31231548	      7.25797485	     14.31733505	     20.99378661	    -20.28188657	     -5.63791103	     36.00423016	     85.70739963	     -0.62676154	     -4.45613560	     -4.61031299	      7.73814570	     90.09745083
      0.16666670	     10.49538693	      6.29993012	    170.46478266	      0.76394573	      0.93907660	      0.71870119	      8.02417953	     10.21398712	      2.82735889	     25.16227808	      0.43916460	     17.44450295	     -4.31879710	     -7.42986292	     36.34447921	    -10.42500132	     -2.58855009	      8.79685497	      0.15353408	     -4.91275229	     -0.51973377	     -7.42986292	      0.31941670	      7.47362202	     14.63783123	     21.38931608	    -20.30447316	     -7.29789876	     35.66251481	     84.85090441	     -0.44168629	     -3.79511392	     -6.98634954	      6.05935882	     89.54099260
      0.18333330	     10.08375769	      6.55038286	    170.47011623	      0.76460160	      0.93780913	      0.71977493	      7.31608229	     10.22237295	      2.87694062	     27.21559108	      0.47500167	     18.19825925	     -4.85025904	     -7.43047203	     36.05111196	    -10.88083208	     -1.79005104	      9.28062079	      0.16197739	     -4.83867171	     -0.55256693	     -7.43047203	      0.11148935	      7.63779706	     14.56070683	     21.34756402	    -20.51694602	     -7.60186767	     35.68728677	     84.67776755	     -0.81972766	     -3.40111326	     -7.35201612	      5.86372188	     89.46620589
      0.20000000	      9.43680950	      6.49232272	    170.78331760	      0.76413967	      0.93897260	      0.72068159	      6.89765829	      9.76416283	      2.57107871	     29.91711187	      0.52215210	     18.70543501	     -5.31388666	     -7.43119921	     35.53796406	    -10.84011220	     -1.04861006	     10.49882351	      0.18323904	     -4.74672477	     -1.14799144	     -7.43119921	     -0.44510002	      7.24819433	     14.27755597	     21.24364151	    -20.51030225	     -7.98921384	     35.71411842	     84.44254670	     -0.92022282	     -3.10719315	     -7.79705672	      5.65411327	     89.34716538
      0.21666670	      8.67141435	      6.15761856	    171.33396596	      0.76339487	      0.94146476	      0.72325884	      6.94093175	      8.74724928	      1.63694268	     33.55064333	      0.58556919	     19.34177468	     -5.20706001	     -7.43411756	     34.77867531	    -10.22774696	      0.01976795	     11.91740997	      0.20799804	     -5.32695112	     -2.97955963	     -7.43411756	     -1.19158593	      6.56791088	     13.56619240	     21.00227790	    -20.16284745	     -9.19153178	     35.95562585	     83.59484646	     -0.75616059	     -2.76642778	     -9.34862661	      5.44553968	     88.87308112
      0.23333330	      8.09690998	      5.66160480	    171.87453073	      0.76325661	      0.94300080	      0.72726867	      7.73588006	      7.49400202	      0.73366817	     38.12901231	      0.66547681	     19.32550691	     -5.64840745	     -7.43948227	     34.19949274	     -9.40516983	      0.47716777	     13.62244190	      0.23775646	     -5.52601939	     -3.78328541	     -7.43948227	     -1.69216105	      5.75575762	     12.90131148	     20.37498460	    -19.90754137	     -9.86460127	     36.14149318	     82.66589606	     -0.44637831	     -2.47376989	    -10.77921511	      5.53540436	     88.50143392
      0.25000000	      7.37160379	      5.03132972	    172.41200735	      0.76259874	      0.94254101	      0.73153688	      8.78276923	      5.95928891	     -0.16969280	     43.42067504	      0.75783374	     18.54876798	     -6.16017368	     -7.44021393	     33.23288278	     -8.36651736	      0.58969369	     15.22812955	      0.26578100	     -5.60218507	     -4.11134737	     -7.44021393	     -2.38050128	      4.80451259	     11.96660368	     19.76017897	    -19.55820122	     -9.80570872	     36.08773406	     82.60792837	      0.17253723	     -2.31541296	    -10.75038964	      5.65759055	     88.52427664
      0.26666670	      6.97006815	      4.13603738	    172.85451104	      0.76014071	      0.94060607	      0.73539757	     10.55489880	      3.95770856	     -1.20332266	     49.28180866	      0.86012982	     17.40020135	     -5.49076258	     -7.44304909	     32.32699507	     -7.04830525	      0.64331444	     16.57431800	      0.28927642	     -6.08662610	     -5.03176314	     -7.44304909	     -2.52357937	      3.65478193	     10.70805893	     18.86574389	    -18.88337479	     -9.58633392	     36.12676958	     82.48217237	      0.82940953	     -2.19781175	    -10.37625577	      5.97793832	     88.55112740
      0.28333330	      6.25945897	      3.31726217	    173.40847705	      0.75557553	      0.93838212	      0.73955930	     12.02143499	      2.03581299	     -1.96819508	     54.97311390	      0.95946184	     15.42043068	     -5.45563260	     -7.44412113	     31.05167196	     -5.74375286	      0.51385858	     18.02009389	      0.31450997	     -5.73016904	     -5.48861953	     -7.44412113	     -3.10357257	      2.51466071	      9.45668788	     17.77635435	    -18.06159444	     -9.38968479	     36.02883820	     82.44124547	      1.75104465	     -2.07777979	    -10.10273640	      6.57696179	     88.53521771
      0.30000000	      5.89430734	      2.37566320	    173.86553455	      0.74875493	      0.93531690	      0.74485714	     13.87995934	      0.03139538	     -2.37573693	     60.65389129	      1.05861011	     13.54371573	     -4.96927520	     -7.44663333	     30.01949032	     -4.31005508	      0.20303676	     19.25847648	      0.33612382	     -5.43410839	     -6.49807255	     -7.44663333	     -3.21134438	      1.41981976	      8.21386849	     16.60124690	    -17.06878856	     -9.15231502	     35.59493193	     82.52000872	      2.50607243	     -1.93919483	     -9.01440178	      6.96333674	     88.73757285
